<svg xmlns="http://www.w3.org/2000/svg" viewBox="0 0 480 640"><defs><style>.cls-1{fill:#ba9bc9;stroke:#6ab5ff;stroke-width:4px;}.cls-1,.cls-2,.cls-3,.cls-4{stroke-miterlimit:10;}.cls-2{fill:#ffffde;fill-opacity:0.54;stroke:#333;stroke-width:3px;}.cls-3,.cls-4{fill:none;stroke-width:5px;}.cls-3{stroke:#f5f0ff;}.cls-4{stroke:#ed1e79;}</style></defs><title>spiral_logo</title><g id="Layer_1" data-name="Layer 1"><polygon class="cls-1" points="67.52 484.22 0 251.45 172.48 77.91 412.48 137.14 480 369.91 307.52 543.45 67.52 484.22"/><polygon class="cls-2" points="472.72 235.43 285.95 74.53 51.14 150.91 3.1 388.2 189.87 549.1 424.68 472.71 472.72 235.43"/></g><g id="Layer_2" data-name="Layer 2"><line class="cls-3" x1="289.01" y1="74.53" x2="172.48" y2="77.91"/><line class="cls-3" x1="54.19" y1="150.91" x2="172.48" y2="77.91"/><line class="cls-3" y1="251.45" x2="54.19" y2="150.91"/><line class="cls-3" x1="6.15" y1="388.2" y2="251.45"/><line class="cls-3" x1="67.52" y1="484.22" x2="6.15" y2="388.2"/><line class="cls-3" x1="192.92" y1="549.1" x2="67.52" y2="484.22"/><line class="cls-3" x1="307.52" y1="543.45" x2="192.92" y2="549.1"/><line class="cls-3" x1="427.73" y1="472.72" x2="307.52" y2="543.45"/><line class="cls-3" x1="480" y1="369.91" x2="427.73" y2="472.72"/><line class="cls-3" x1="475.78" y1="235.43" x2="480" y2="369.91"/><line class="cls-3" x1="412.48" y1="137.14" x2="475.78" y2="235.43"/><line class="cls-3" x1="289.01" y1="74.53" x2="412.48" y2="137.14"/><path class="cls-4" d="M339.78,129.86c79.8,80.39,77.82,208.79-4.43,286.79-65.79,62.4-170.89,60.85-234.73-3.46a127.74,127.74,0,0,1,2.83-183.55c42.11-39.93,109.37-38.94,150.23,2.22a81.75,81.75,0,0,1-1.81,117.47c-27,25.56-70,24.92-96.15-1.42a52.32,52.32,0,0,1,1.16-75.18,44.22,44.22,0,0,1,61.53.91,33.48,33.48,0,0,1-.74,48.11,28.3,28.3,0,0,1-39.38-.58"/></g></svg>