<svg id="Layer_2" data-name="Layer 2" xmlns="http://www.w3.org/2000/svg" viewBox="0 0 640 480"><defs><style>.cls-1{fill:#333;opacity:0.81;}.cls-1,.cls-6{stroke:#f2f2f2;}.cls-1,.cls-2,.cls-3,.cls-4,.cls-5,.cls-6{stroke-miterlimit:10;}.cls-2{fill:#ba9bc9;stroke:#6ab5ff;stroke-width:4px;}.cls-3{fill:#ffffde;fill-opacity:0.54;stroke:#333;stroke-width:3px;}.cls-4,.cls-5{fill:none;stroke-width:5px;}.cls-4{stroke:#f5f0ff;}.cls-5{stroke:#ed1e79;}.cls-6{font-size:128.8px;fill:#fff;font-family:DINAlternate-Bold, DIN Alternate;font-weight:700;}.cls-7{letter-spacing:-0.02em;}</style></defs><title>spiral</title><rect class="cls-1" x="-0.5" y="29.5" width="637" height="428" rx="11.22" ry="11.22"/><g id="Layer_1" data-name="Layer 1"><polygon class="cls-2" points="47.53 323.51 17 214.14 94.97 132.59 203.47 160.42 234 269.8 156.03 351.34 47.53 323.51"/><polygon class="cls-3" points="230.71 206.61 146.28 131 40.12 166.89 18.4 278.39 102.83 354 208.99 318.11 230.71 206.61"/><line class="cls-4" x1="147.66" y1="131" x2="94.97" y2="132.59"/><line class="cls-4" x1="41.5" y1="166.89" x2="94.97" y2="132.59"/><line class="cls-4" x1="17" y1="214.14" x2="41.5" y2="166.89"/><line class="cls-4" x1="19.78" y1="278.39" x2="17" y2="214.14"/><line class="cls-4" x1="47.53" y1="323.51" x2="19.78" y2="278.39"/><line class="cls-4" x1="104.21" y1="354" x2="47.53" y2="323.51"/><line class="cls-4" x1="156.03" y1="351.34" x2="104.21" y2="354"/><line class="cls-4" x1="210.37" y1="318.11" x2="156.03" y2="351.34"/><line class="cls-4" x1="234" y1="269.8" x2="210.37" y2="318.11"/><line class="cls-4" x1="232.09" y1="206.61" x2="234" y2="269.8"/><line class="cls-4" x1="203.47" y1="160.42" x2="232.09" y2="206.61"/><line class="cls-4" x1="147.66" y1="131" x2="203.47" y2="160.42"/><path class="cls-5" d="M170.61,157c36.08,37.77,35.18,98.11-2,134.76a74.22,74.22,0,0,1-106.12-1.62,61.68,61.68,0,0,1,1.28-86.25,47.49,47.49,0,0,1,67.91,1,39.48,39.48,0,0,1-.81,55.2,30.4,30.4,0,0,1-43.47-.67,25.27,25.27,0,0,1,.52-35.33,19.46,19.46,0,0,1,27.82.43,16.18,16.18,0,0,1-.33,22.61,12.46,12.46,0,0,1-17.81-.27"/><text class="cls-6" transform="translate(258.45 281.8) scale(1.17 1)">Spi<tspan class="cls-7" x="171.62" y="0">r</tspan><tspan x="219.42" y="0">al</tspan></text></g></svg>